HIERARCHY
ROOT Hips
{
	OFFSET 0.000000 0.000000 0.000000
	CHANNELS 6 Xposition Yposition Zposition Zrotation Xrotation Yrotation
	JOINT LeftUpLeg
	{
		OFFSET 3.629690 0.000000 0.000000
		CHANNELS 3 Zrotation Xrotation Yrotation
		JOINT LeftLeg
		{
			OFFSET 0.000000 -17.030560 0.000000
			CHANNELS 3 Zrotation Xrotation Yrotation
			JOINT LeftFoot
			{
				OFFSET 0.000000 -15.712090 0.000000
				CHANNELS 3 Zrotation Xrotation Yrotation
				JOINT LeftToeBase
				{
					OFFSET 0.000000 -1.618809 6.041470
					CHANNELS 3 Zrotation Xrotation Yrotation
					End Site
					{
						OFFSET 0.000000 0.000000 2.952750
					}
				}
			}
		}
	}
	JOINT RightUpLeg
	{
		OFFSET -3.629690 0.000000 0.000000
		CHANNELS 3 Zrotation Xrotation Yrotation
		JOINT RightLeg
		{
			OFFSET 0.000000 -17.030560 0.000000
			CHANNELS 3 Zrotation Xrotation Yrotation
			JOINT RightFoot
			{
				OFFSET 0.000000 -15.712090 0.000000
				CHANNELS 3 Zrotation Xrotation Yrotation
				JOINT RightToeBase
				{
					OFFSET 0.000000 -1.618809 6.041470
					CHANNELS 3 Zrotation Xrotation Yrotation
					End Site
					{
						OFFSET 0.000000 0.000000 2.952750
					}
				}
			}
		}
	}
	JOINT Spine
	{
		OFFSET 0.000000 0.039370 0.000000
		CHANNELS 3 Zrotation Xrotation Yrotation
		JOINT Spine1
		{
			OFFSET 0.000000 7.224080 0.000000
			CHANNELS 3 Zrotation Xrotation Yrotation
			JOINT Neck
			{
				OFFSET 0.000000 10.285650 0.000000
				CHANNELS 3 Zrotation Xrotation Yrotation
				JOINT Head
				{
					OFFSET 0.000000 6.808250 0.000000
					CHANNELS 3 Zrotation Xrotation Yrotation
					End Site
					{
						OFFSET 0.000000 4.527550 0.000000
					}
				}
			}
			JOINT LeftShoulder
			{
				OFFSET 0.000000 10.285650 0.000000
				CHANNELS 3 Zrotation Xrotation Yrotation
				JOINT LeftArm
				{
					OFFSET 7.175730 -0.000031 0.000000
					CHANNELS 3 Zrotation Xrotation Yrotation
					JOINT LeftForeArm
					{
						OFFSET 9.778290 -0.000040 0.000000
						CHANNELS 3 Zrotation Xrotation Yrotation
						JOINT LeftHand
						{
							OFFSET 9.419470 -0.000031 0.000000
							CHANNELS 3 Zrotation Xrotation Yrotation
							JOINT LeftHandThumb
							{
								OFFSET 0.000000 0.000000 0.000000
								CHANNELS 3 Zrotation Xrotation Yrotation
								End Site
								{
									OFFSET 0.000000 0.000000 3.937000
								}
							}
							JOINT L_Wrist_End
							{
								OFFSET 3.937000 -0.000010 0.000000
								CHANNELS 3 Zrotation Xrotation Yrotation
								End Site
								{
									OFFSET 0.000000 0.100000 0.000000
								}
							}
						}
					}
				}
			}
			JOINT RightShoulder
			{
				OFFSET 0.000000 10.285650 0.000000
				CHANNELS 3 Zrotation Xrotation Yrotation
				JOINT RightArm
				{
					OFFSET -7.175730 -0.000031 0.000000
					CHANNELS 3 Zrotation Xrotation Yrotation
					JOINT RightForeArm
					{
						OFFSET -9.778290 -0.000040 0.000000
						CHANNELS 3 Zrotation Xrotation Yrotation
						JOINT RightHand
						{
							OFFSET -9.419470 -0.000031 0.000000
							CHANNELS 3 Zrotation Xrotation Yrotation
							JOINT RightHandThumb
							{
								OFFSET 0.000000 0.000000 0.000000
								CHANNELS 3 Zrotation Xrotation Yrotation
								End Site
								{
									OFFSET 0.000000 0.000000 3.937000
								}
							}
							JOINT R_Wrist_End
							{
								OFFSET -5.393690 -0.000019 0.000000
								CHANNELS 3 Zrotation Xrotation Yrotation
								End Site
								{
									OFFSET 0.000000 0.100000 0.000000
								}
							}
						}
					}
				}
			}
		}
	}
}
MOTION
Frames: 9
Frame Time: 0.038462
0.000000 35.000000 0.000000 -3.259409 1.294034 -13.198037 5.599079 2.700817 3.270821 0.162192 15.416765 0.068685 -7.745990 -11.914833 17.044038 0.066632 -10.984767 0.218181 -8.276607 -26.508611 -3.371771 -0.476970 42.802409 0.028536 11.417059 0.673243 -8.138877 -0.380828 -9.999110 -0.074130 -6.185755 -17.649082 -3.361628 14.978971 21.663307 -5.672193 5.785355 24.367993 5.909600 -19.699554 -33.369549 11.766633 22.477874 18.042888 -8.969477 -87.163048 23.197691 7.463043 -0.642577 -0.445079 -70.120166 0.777438 47.164228 24.329827 -0.397328 0.273959 -0.676222 -0.019918 0.167885 0.504168 -9.857903 7.183525 -4.820060 52.421572 18.393530 16.527404 -0.065071 0.329024 124.752271 12.286126 39.582916 -43.414970 0.067816 0.066217 -0.136022 -0.131544 -0.049084 0.440429
0.000000 35.000000 0.000000 -3.089623 0.556761 -16.314049 7.901514 4.313826 2.913278 0.166151 12.034726 -0.108345 -9.300332 -10.546841 15.085039 -0.306729 -12.266829 0.136732 -4.849337 -23.584871 -0.730529 -0.895583 31.457912 0.181492 16.721109 0.842347 -6.450888 -0.786239 -10.378233 0.001290 -5.550150 -18.188585 -4.392946 16.633767 22.629674 -7.034366 3.540636 23.520067 10.306119 -20.254880 -32.807672 11.297925 21.045876 18.202490 -6.966264 -87.070278 22.957087 9.066246 -0.392373 -0.216382 -59.821815 10.019047 33.346149 12.595728 -0.211501 -0.242026 -1.238828 -0.113776 0.521112 0.613985 -9.136248 7.202121 -3.353987 58.216148 24.475836 14.673569 0.927208 0.165930 106.947855 -0.855248 35.014586 -33.724872 0.050573 0.087139 -0.496927 -0.454750 0.257883 0.168141
0.000000 35.000000 0.000000 -2.843185 1.769563 -17.153566 6.873291 5.022696 4.654570 -0.355096 13.078863 0.358521 -7.963135 -12.578774 16.950959 0.392762 -11.017743 0.605172 -4.497641 -19.715651 3.886979 -0.556485 23.647517 -0.101573 22.284172 4.850662 -3.646250 -0.579819 -8.867074 0.826139 -3.149980 -19.470375 -3.471055 17.363524 21.764244 -6.401115 -1.677203 23.979075 16.345158 -17.945239 -31.787001 5.943435 11.473018 16.605260 -3.615188 -81.146833 15.674869 9.701003 0.059395 -0.282555 -55.449755 14.885935 31.327784 8.051460 -1.077176 -0.372486 -1.098930 0.269438 0.252519 0.641708 -8.123623 6.846927 1.000445 73.747127 16.231515 4.426058 0.815931 1.220500 92.053039 -9.275954 23.961240 -26.611663 0.883790 0.044226 -0.446894 -0.553979 -1.385738 0.332850
0.000000 35.000000 0.000000 -2.332076 -0.909056 -18.122418 6.321885 4.935213 3.067444 0.364512 20.381967 -0.216783 -6.506230 -15.851686 18.602415 -0.392264 -8.802920 -0.023239 -0.475680 -11.030665 4.554565 -0.508309 18.557086 0.647956 10.573790 1.596234 -4.265212 -0.521843 -10.223077 -0.040591 1.825659 -18.481141 6.744600 7.080194 19.727435 -0.086457 -1.785416 28.778145 12.923897 -13.332441 -32.185430 -2.635265 7.386204 13.443783 -1.805429 -71.495935 -4.004102 1.762166 -0.292697 -0.036005 -58.134939 24.563275 15.782615 5.427983 -0.969008 0.361960 -0.631332 -0.298041 -0.095738 0.428670 -7.949560 12.184515 2.827789 84.009365 -0.001555 -9.635317 0.073967 0.104031 79.997915 -20.634499 23.794548 -20.842229 0.505131 -0.317640 -0.665073 -0.665853 0.316131 0.056206
0.000000 35.000000 0.000000 -2.346079 -3.222352 -16.767435 4.071202 6.972107 3.819569 -0.029139 25.531838 0.204841 -5.115084 -19.039057 17.194408 -0.015482 -8.401709 0.195725 -4.486125 -12.605670 6.351553 -1.185358 22.868905 0.277010 7.512566 -3.223797 -8.208938 -0.642752 -6.165977 -0.490218 6.425217 -18.595102 12.581287 3.781436 21.308200 2.564382 -3.781897 26.866037 12.336271 -14.909668 -33.835015 -8.152568 4.461954 11.090943 -3.080135 -72.798160 -14.999611 -2.551399 -0.276827 0.061738 -59.882546 35.117576 14.512465 3.029764 -0.228700 -0.216901 -1.104054 -0.324330 0.056953 -0.175907 -7.920797 12.583035 2.166392 81.513706 -3.484780 -13.999548 0.326886 0.244995 77.263671 -29.975350 7.303755 -21.397438 0.187382 -0.335158 -0.420371 -1.137952 0.196739 -0.040818
0.000000 35.000000 0.000000 -2.165704 -3.942116 -12.653604 4.614009 7.398374 1.075762 -0.001237 25.260328 0.147591 -5.771970 -18.268987 13.561281 -0.133357 -11.318846 0.069811 -4.901860 -15.187252 7.637170 -0.710439 28.537063 0.111651 10.447872 -2.469524 -8.925534 0.134505 -6.063936 -0.033180 3.251608 -20.269903 7.137469 6.160531 23.088275 -0.032467 -1.392478 24.638635 9.980522 -16.277874 -34.300665 -4.623139 7.415944 11.266435 -6.088122 -77.113361 -15.410148 0.488433 -0.618361 0.009340 -64.817616 38.365684 16.697386 -0.014667 -0.559888 -0.365055 -0.434186 0.029535 0.013378 0.133887 -5.934747 12.179688 -2.048472 72.568781 5.677991 -11.922613 0.597612 0.700642 82.685075 -27.090744 6.806451 -22.653237 0.133123 -0.070375 -0.093365 -0.716490 -0.106805 0.244075
0.000000 35.000000 0.000000 -1.031758 -3.239843 -9.174156 3.883033 6.025620 -0.627624 0.344838 19.788918 -0.306332 -6.495051 -15.421101 12.473663 -0.018624 -11.524662 0.286700 -5.751820 -16.732169 6.141902 0.116168 34.146284 -0.040325 12.854248 1.411853 -8.783474 0.283705 -9.188247 0.484350 -2.031248 -20.387942 -0.930279 10.666934 24.546365 -4.784624 2.440237 23.321954 6.327401 -18.036165 -34.572136 1.711830 13.240832 12.333013 -12.121180 -78.212791 -12.113692 7.546835 -0.951107 -0.011435 -68.754334 37.785735 17.228283 -1.782786 -0.593780 -0.073197 -0.392707 -0.000807 -0.506116 0.005975 -4.422519 10.784572 -5.771348 64.002507 12.327959 -3.287529 0.681183 1.229719 90.031684 -24.140609 9.920327 -22.199334 0.367281 -0.262924 -0.206946 0.119963 -0.082358 0.951702
0.000000 35.000000 0.000000 -0.313855 -2.630460 -5.936601 2.368070 5.646383 -0.503701 0.267113 14.231945 -0.277380 -6.082503 -12.144609 14.102928 -0.291609 -11.129185 0.288004 -5.877833 -19.784414 5.312904 0.316605 40.136538 -0.058591 14.755385 5.514822 -8.258024 0.355256 -11.596901 0.572754 -5.414057 -19.642190 -5.805072 12.014568 24.965557 -7.900233 4.320988 22.674547 5.651587 -18.846755 -34.563866 7.222799 16.805233 13.340752 -14.427133 -77.582522 -7.465807 12.458790 -0.685308 -0.198336 -69.884367 35.101553 14.887052 -0.147440 -0.644985 0.233691 -0.470735 -0.252462 -0.318425 0.249666 -4.522720 8.469182 -6.331438 60.155190 13.245354 5.458791 0.691097 0.923004 94.347408 -23.094853 13.946156 -20.668951 0.283165 -0.296726 -0.039183 0.598967 0.176016 0.948793
0.000000 35.000000 0.000000 0.654334 -2.153085 -6.962452 1.004661 6.201718 1.562178 -0.012489 12.495825 0.020232 -5.273494 -10.523774 16.041318 -0.573449 -11.378732 0.175195 -5.478765 -24.349479 6.081411 -0.098271 46.057436 0.174448 14.692131 7.670819 -8.217825 0.302086 -12.431650 0.478412 -4.602839 -18.981451 -4.869888 8.926718 24.914448 -7.960749 3.697802 23.080882 8.044175 -18.067660 -34.490603 9.477784 16.407492 14.487030 -12.391694 -75.829629 -7.145764 13.336943 -0.085996 -0.206866 -71.513623 33.636525 10.236765 3.672038 -0.596489 0.256535 -0.512362 -0.357903 0.003820 0.577191 -6.210893 6.125537 -2.994783 60.833524 11.925300 9.538732 0.568647 0.062920 94.361170 -23.621128 17.721645 -18.201144 0.018862 -0.188551 0.158008 0.523967 0.394568 0.426778
